<svg width="117" height="18" viewBox="0 0 117 18" fill="none" xmlns="http://www.w3.org/2000/svg">
<g clip-path="url(#clip0_94_13)">
<path d="M3.3366 12.5801L1.1454 17.7017H0L7.37039 0.298336H8.61539L16.7328 17.7017H14.3125L11.952 12.5801H3.3366ZM7.48991 3.08287H7.39031L3.80472 11.4663H11.4042L7.48991 3.08287ZM42.6088 15.2453H42.7084L50.7959 0.298336H52.4891V17.7017H50.2183V3.60994H50.1187L42.2602 18H41.832L34.113 3.51049H34.0134V17.7017H32.9178V0.298336H34.611L42.6088 15.2453ZM72.0107 12.5801L69.8195 17.7017H68.7239L76.0445 0.298336H77.2895L85.4069 17.7017H82.9866L80.5962 12.5801H72.0107ZM76.164 3.08287H76.0644L72.4788 11.4663H80.0783L76.164 3.08287ZM117 15.1657C116.693 15.4849 116.36 15.7777 116.004 16.0409C115.523 16.4071 115.002 16.7173 114.45 16.9657C113.746 17.2824 113.012 17.5289 112.259 17.7017C111.324 17.9108 110.368 18.0109 109.41 18C107.927 18.0392 106.452 17.7717 105.078 17.2144C103.944 16.7534 102.924 16.0508 102.09 15.1558C101.303 14.2981 100.712 13.2802 100.357 12.1724C99.9839 11.0807 99.7954 9.93465 99.7991 8.78121C99.779 7.52983 100.016 6.28764 100.496 5.13148C100.95 4.07003 101.63 3.11988 102.488 2.34695C103.389 1.56884 104.44 0.983314 105.576 0.626513C106.858 0.192713 108.206 -0.0191729 109.56 -6.65814e-06C110.455 -0.0115745 111.349 0.0886499 112.219 0.298336C112.919 0.477648 113.59 0.755577 114.211 1.12375C114.766 1.44796 115.259 1.86899 115.665 2.36684C116.07 2.83704 116.406 3.36284 116.661 3.92817H114.819C114.679 3.56014 114.469 3.22249 114.201 2.9337C113.877 2.55485 113.49 2.23517 113.056 1.98894C112.561 1.70721 112.032 1.48997 111.482 1.34253C110.834 1.16483 110.163 1.0811 109.49 1.09392C108.494 1.08229 107.507 1.27876 106.592 1.67071C105.722 2.03537 104.939 2.57733 104.291 3.26187C103.63 3.95812 103.115 4.77988 102.777 5.67845C102.417 6.6728 102.238 7.72374 102.249 8.78121C102.246 9.82011 102.418 10.8521 102.757 11.8342C103.081 12.7876 103.592 13.6668 104.261 14.4199C104.955 15.1859 105.804 15.7961 106.751 16.2099C107.835 16.6769 109.007 16.9075 110.187 16.8862C112.416 16.9039 114.562 16.0468 116.163 14.4994L117 15.1657Z" fill="#658F8D"/>
</g>
<defs>
<clipPath id="clip0_94_13">
<rect width="117" height="18" fill="white"/>
</clipPath>
</defs>
</svg>
